<?xml version="1.0" encoding="UTF-8"?>
<svg xmlns="http://www.w3.org/2000/svg" xmlns:xlink="http://www.w3.org/1999/xlink" width="250px" height="250px" viewBox="0 0 250 249" version="1.1">
<defs>
<clipPath id="clip1">
  <path d="M 0.0625 0 L 249.828125 0 L 249.828125 248.890625 L 0.0625 248.890625 Z M 0.0625 0 "/>
</clipPath>
<clipPath id="clip2">
  <path d="M 47.304688 132.613281 L 202.589844 132.613281 L 202.589844 159.035156 L 47.304688 159.035156 Z M 47.304688 132.613281 "/>
</clipPath>
<clipPath id="clip3">
  <path d="M 110.765625 89.855469 L 131 89.855469 L 131 126.375 L 110.765625 126.375 Z M 110.765625 89.855469 "/>
</clipPath>
<clipPath id="clip4">
  <path d="M 117 89.855469 L 131 89.855469 L 131 126.375 L 117 126.375 Z M 117 89.855469 "/>
</clipPath>
<clipPath id="clip5">
  <path d="M 117 110 L 130 110 L 130 126.375 L 117 126.375 Z M 117 110 "/>
</clipPath>
<clipPath id="clip6">
  <path d="M 130 89.855469 L 138 89.855469 L 138 107 L 130 107 Z M 130 89.855469 "/>
</clipPath>
<clipPath id="clip7">
  <path d="M 130 89.855469 L 139.121094 89.855469 L 139.121094 102 L 130 102 Z M 130 89.855469 "/>
</clipPath>
</defs>
<g id="surface1">
<g clip-path="url(#clip1)" clip-rule="nonzero">
<path style="fill-rule:nonzero;fill:rgb(55.294118%,74.117647%,100%);fill-opacity:1;stroke-width:1;stroke-linecap:butt;stroke-linejoin:miter;stroke:rgb(100%,100%,100%);stroke-opacity:1;stroke-miterlimit:4;" d="M 0.0000370185 171.424667 C 0.0000370185 76.747757 76.752507 0.000000000000003097 171.424968 0.000000000000003097 C 266.102792 0.000000000000003097 342.849899 76.747757 342.849899 171.424667 C 342.849899 266.101578 266.102792 342.849335 171.424968 342.849335 C 76.752507 342.849335 0.0000370185 266.101578 0.0000370185 171.424667 Z M 171.424968 339.566987 C 264.290417 339.566987 339.568321 264.288215 339.568321 171.424667 C 339.568321 78.561119 264.290417 3.282348 171.424968 3.282348 C 78.564882 3.282348 3.281615 78.561119 3.281615 171.424667 C 3.281615 264.288215 78.564882 339.566987 171.424968 339.566987 Z M 171.424968 339.566987 " transform="matrix(0.728499,0,0,0.725948,0.062473,-0.000000000000002248)"/>
</g>
<path style=" stroke:none;fill-rule:nonzero;fill:rgb(55.294118%,74.117647%,100%);fill-opacity:1;" d="M 244.835938 124.445312 C 244.835938 58.464844 191.160156 4.976562 124.945312 4.976562 C 58.734375 4.976562 5.058594 58.464844 5.058594 124.445312 C 5.058594 190.425781 58.734375 243.914062 124.945312 243.914062 C 191.160156 243.914062 244.835938 190.425781 244.835938 124.445312 Z M 244.835938 124.445312 "/>
<g clip-path="url(#clip2)" clip-rule="nonzero">
<path style=" stroke:none;fill-rule:nonzero;fill:rgb(100%,100%,100%);fill-opacity:1;" d="M 54.839844 132.613281 L 54.699219 147.871094 L 54.769531 151.210938 C 54.769531 153.015625 54.316406 154.503906 53.414062 155.679688 C 52.507812 156.851562 50.9375 157.96875 48.703125 159.035156 L 47.597656 157.4375 L 47.597656 157.082031 C 49.238281 156.203125 50.402344 155.339844 51.09375 154.484375 C 51.785156 153.632812 52.128906 152.550781 52.128906 151.25 L 52.128906 148.152344 L 51.984375 134.925781 L 47.597656 134.960938 L 47.308594 134.710938 L 47.488281 132.613281 Z M 68.972656 137.699219 L 75.21875 155.410156 L 72.542969 155.410156 L 72.113281 153.488281 L 71.1875 150.855469 L 66.941406 150.820312 L 63.15625 150.855469 L 62.191406 153.347656 L 61.691406 155.410156 L 59.050781 155.410156 L 65.90625 137.699219 Z M 67.152344 148.722656 L 70.4375 148.6875 L 67.476562 140.292969 L 67.261719 140.292969 L 64.011719 148.6875 Z M 86.070312 137.519531 C 88.042969 137.519531 89.757812 137.933594 91.207031 138.765625 L 90.707031 141.21875 L 90.386719 141.324219 C 89.792969 140.828125 89.101562 140.4375 88.316406 140.152344 C 87.53125 139.867188 86.6875 139.726562 85.785156 139.726562 C 84.023438 139.726562 82.679688 140.289062 81.75 141.410156 C 80.824219 142.539062 80.359375 144.21875 80.359375 146.445312 C 80.359375 148.699219 80.824219 150.417969 81.75 151.605469 C 82.679688 152.789062 84.023438 153.382812 85.785156 153.382812 C 86.640625 153.382812 87.5 153.234375 88.367188 152.933594 C 89.238281 152.640625 90.019531 152.242188 90.707031 151.746094 L 91.03125 151.851562 L 90.78125 154.308594 C 89.164062 155.183594 87.460938 155.621094 85.675781 155.621094 C 83.058594 155.621094 81.050781 154.84375 79.644531 153.289062 C 78.242188 151.738281 77.539062 149.527344 77.539062 146.660156 C 77.539062 143.742188 78.28125 141.492188 79.765625 139.902344 C 81.253906 138.316406 83.355469 137.519531 86.070312 137.519531 Z M 108.9375 137.664062 L 101.371094 145.984375 C 103.894531 149.066406 106.570312 152.007812 109.402344 154.804688 L 109.332031 155.195312 C 108.59375 155.433594 107.738281 155.609375 106.761719 155.730469 L 106.332031 155.550781 C 103.289062 152.136719 100.660156 149.007812 98.445312 146.164062 L 98.445312 145.949219 L 104.585938 139.261719 L 105.761719 137.699219 Z M 98.269531 137.699219 L 98.160156 149.859375 L 98.230469 155.410156 L 95.589844 155.410156 L 95.699219 150.074219 L 95.589844 137.699219 Z M 131.957031 152.917969 L 132.136719 153.203125 L 131.921875 155.410156 L 119.074219 155.410156 L 119.253906 148.546875 L 119.074219 132.613281 L 131.957031 132.613281 L 132.101562 132.898438 L 131.886719 135.101562 L 126.5 134.996094 L 121.964844 135.066406 L 121.894531 142.535156 L 126.175781 142.605469 L 129.960938 142.5 L 130.175781 142.75 L 129.925781 144.953125 L 125.925781 144.882812 L 121.859375 144.917969 L 121.824219 148.296875 L 121.929688 153.027344 L 126.460938 153.0625 Z M 142.238281 137.664062 C 144.117188 137.664062 145.5625 138.113281 146.570312 139.015625 C 147.582031 139.914062 148.089844 141.21875 148.089844 142.925781 C 148.089844 144.917969 147.453125 146.476562 146.175781 147.597656 C 144.90625 148.726562 143.152344 149.292969 140.917969 149.292969 L 138.738281 149.292969 L 138.738281 149.859375 L 138.8125 155.410156 L 136.171875 155.410156 L 136.277344 150.074219 L 136.171875 137.699219 Z M 141.773438 147.230469 C 144.128906 146.828125 145.308594 145.464844 145.308594 143.140625 C 145.308594 142.023438 144.992188 141.195312 144.359375 140.648438 C 143.730469 140.105469 142.785156 139.808594 141.523438 139.761719 L 138.8125 139.796875 L 138.777344 147.160156 Z M 167.640625 137.625 L 167.535156 150.109375 L 167.570312 155.410156 L 164.714844 155.410156 L 155.363281 141.894531 L 155.1875 141.894531 L 155.148438 149.503906 L 155.222656 155.410156 L 152.792969 155.410156 L 152.902344 150.179688 L 152.832031 137.699219 L 155.648438 137.699219 L 165 151.210938 L 165.25 151.210938 L 165.179688 137.804688 Z M 180.167969 153.273438 L 184.914062 153.132812 L 185.128906 153.347656 L 184.878906 155.410156 L 174.066406 155.410156 L 174.171875 150.074219 L 174.066406 137.699219 L 184.949219 137.699219 L 185.128906 137.910156 L 184.914062 139.972656 L 180.417969 139.832031 L 176.707031 139.867188 L 176.671875 145.238281 L 180.203125 145.273438 L 183.308594 145.167969 L 183.488281 145.414062 L 183.273438 147.515625 L 179.988281 147.40625 L 176.671875 147.441406 L 176.636719 149.859375 L 176.671875 153.238281 Z M 197.761719 148.261719 C 199.214844 150.464844 200.820312 152.636719 202.582031 154.769531 L 202.546875 155.125 C 201.546875 155.433594 200.726562 155.609375 200.082031 155.660156 L 199.621094 155.375 C 197.8125 152.648438 196.441406 150.5 195.515625 148.9375 L 192.160156 148.972656 L 192.160156 149.859375 L 192.230469 155.410156 L 189.589844 155.410156 L 189.699219 150.074219 L 189.589844 137.699219 L 195.65625 137.664062 C 197.539062 137.664062 198.980469 138.101562 199.992188 138.976562 C 201.003906 139.855469 201.511719 141.125 201.511719 142.785156 C 201.511719 143.992188 201.183594 145.070312 200.527344 146.019531 C 199.875 146.96875 198.953125 147.714844 197.761719 148.261719 Z M 192.230469 139.832031 L 192.195312 146.765625 L 195.550781 146.875 C 197.667969 146.28125 198.726562 144.988281 198.726562 142.996094 C 198.726562 141.953125 198.417969 141.171875 197.800781 140.648438 C 197.179688 140.128906 196.242188 139.84375 194.980469 139.796875 Z M 192.230469 139.832031 "/>
</g>
<g clip-path="url(#clip3)" clip-rule="nonzero">
<path style=" stroke:none;fill-rule:evenodd;fill:rgb(100%,100%,100%);fill-opacity:1;" d="M 110.765625 93.4375 L 117.144531 126.375 L 114.945312 104.328125 L 125.816406 103.621094 L 125.796875 99.933594 L 130.085938 89.855469 L 125.992188 96.566406 Z M 110.765625 93.4375 "/>
</g>
<g clip-path="url(#clip4)" clip-rule="nonzero">
<path style=" stroke:none;fill-rule:evenodd;fill:rgb(100%,100%,100%);fill-opacity:1;" d="M 128.152344 109.847656 L 130.085938 89.859375 L 126.8125 104.6875 L 119.464844 105.078125 L 120.054688 112.714844 L 117.144531 126.375 L 121.660156 111.476562 Z M 128.152344 109.847656 "/>
</g>
<g clip-path="url(#clip5)" clip-rule="nonzero">
<path style=" stroke:none;fill-rule:evenodd;fill:rgb(100%,100%,100%);fill-opacity:1;" d="M 129.433594 114.566406 L 129.636719 110.660156 L 123.652344 112.0625 L 123.640625 116.46875 L 117.144531 126.375 L 125.265625 116.0625 Z M 129.433594 114.566406 "/>
</g>
<path style=" stroke:none;fill-rule:evenodd;fill:rgb(100%,100%,100%);fill-opacity:1;" d="M 130.523438 112.777344 L 136.082031 111.011719 L 136.648438 106.332031 L 130.691406 107.113281 Z M 130.523438 112.777344 "/>
<g clip-path="url(#clip6)" clip-rule="nonzero">
<path style=" stroke:none;fill-rule:evenodd;fill:rgb(100%,100%,100%);fill-opacity:1;" d="M 132.90625 106.097656 L 137.023438 105.566406 L 137.613281 101.730469 L 134.585938 101.589844 L 130.085938 89.855469 L 133.246094 101.417969 Z M 132.90625 106.097656 "/>
</g>
<g clip-path="url(#clip7)" clip-rule="nonzero">
<path style=" stroke:none;fill-rule:evenodd;fill:rgb(100%,100%,100%);fill-opacity:1;" d="M 138.652344 101.164062 L 139.125 97.617188 L 135.546875 96.609375 L 130.085938 89.855469 L 135.515625 98.230469 L 135.355469 100.847656 Z M 138.652344 101.164062 "/>
</g>
</g>
</svg>
